<svg width="24" height="25" viewBox="0 0 24 25" fill="none" xmlns="http://www.w3.org/2000/svg">
<path d="M16 3.5L16 6.5M8 3.5L8 6.5" stroke="white" stroke-width="2" stroke-linecap="round"/>
<path fill-rule="evenodd" clip-rule="evenodd" d="M14 4.5H10L10 6.5C10 7.60457 9.10457 8.5 8 8.5C6.89543 8.5 6 7.60457 6 6.5L6 4.57612C5.02492 4.67203 4.36857 4.88879 3.87868 5.37868C3 6.25736 3 7.67157 3 10.5V15.5C3 18.3284 3 19.7426 3.87868 20.6213C4.75736 21.5 6.17157 21.5 9 21.5H15C17.8284 21.5 19.2426 21.5 20.1213 20.6213C21 19.7426 21 18.3284 21 15.5V10.5C21 7.67157 21 6.25736 20.1213 5.37868C19.6314 4.88879 18.9751 4.67203 18 4.57612L18 6.5C18 7.60457 17.1046 8.5 16 8.5C14.8954 8.5 14 7.60457 14 6.5L14 4.5ZM7 12.5C7 11.9477 7.44772 11.5 8 11.5L16 11.5C16.5523 11.5 17 11.9477 17 12.5C17 13.0523 16.5523 13.5 16 13.5L8 13.5C7.44772 13.5 7 13.0523 7 12.5ZM8 15.5C7.44772 15.5 7 15.9477 7 16.5C7 17.0523 7.44772 17.5 8 17.5L16 17.5C16.5523 17.5 17 17.0523 17 16.5C17 15.9477 16.5523 15.5 16 15.5L8 15.5Z" fill="white"/>
</svg>
